<?xml version="1.0" encoding="UTF-8" standalone="no"?>
<svg
   xmlns:dc="http://purl.org/dc/elements/1.1/"
   xmlns:cc="http://creativecommons.org/ns#"
   xmlns:rdf="http://www.w3.org/1999/02/22-rdf-syntax-ns#"
   xmlns:svg="http://www.w3.org/2000/svg"
   xmlns="http://www.w3.org/2000/svg"
   xmlns:sodipodi="http://sodipodi.sourceforge.net/DTD/sodipodi-0.dtd"
   xmlns:inkscape="http://www.inkscape.org/namespaces/inkscape"
   version="1.0"
   width="512.000000pt"
   height="512.000000pt"
   viewBox="0 0 512.000000 512.000000"
   preserveAspectRatio="xMidYMid meet"
   id="svg2"
   inkscape:version="0.91 r13725"
   sodipodi:docname="winirc.svg"
   inkscape:export-filename="C:\Users\Ryan\Documents\Visual Studio 2015\Projects\WinIRC\WinIRC\Assets\winirc-badge.scale-100.png"
   inkscape:export-xdpi="3.375"
   inkscape:export-ydpi="3.375">
  <defs
     id="defs12" />
  <sodipodi:namedview
     pagecolor="#ffffff"
     bordercolor="#666666"
     borderopacity="1"
     objecttolerance="10"
     gridtolerance="10"
     guidetolerance="10"
     inkscape:pageopacity="0"
     inkscape:pageshadow="2"
     inkscape:window-width="1920"
     inkscape:window-height="1017"
     id="namedview10"
     showgrid="false"
     inkscape:zoom="1.0429825"
     inkscape:cx="53.116356"
     inkscape:cy="281.63359"
     inkscape:window-x="-8"
     inkscape:window-y="-8"
     inkscape:window-maximized="1"
     inkscape:current-layer="svg2" />
  <metadata
     id="metadata4">
Created by potrace 1.11, written by Peter Selinger 2001-2013
<rdf:RDF>
  <cc:Work
     rdf:about="">
    <dc:format>image/svg+xml</dc:format>
    <dc:type
       rdf:resource="http://purl.org/dc/dcmitype/StillImage" />
    <dc:title />
  </cc:Work>
</rdf:RDF>
</metadata>
  <g
     transform="translate(0.000000,512.000000) scale(0.100000,-0.100000)"
     id="g6"
     stroke="none"
     fill="#FFFFFF">
    <path
       d="M1896 4782 c-2 -4 -7 -37 -11 -72 -3 -36 -10 -107 -15 -157 -20 -189 -31 -290 -40 -383 -20 -196 -30 -293 -41 -385 l-12 -95 -368 0 -369 0 0 -215 0 -215 351 0 352 0 -7 -32 c-4 -18 -11 -78 -16 -133 -10 -109 -23 -232 -40 -395 -13 -119 -26 -251 -40 -390 -5 -52 -12 -123 -16 -157 l-7 -63 -378 0 -379 0 0 -215 0 -215 358 0 358 0 -7 -62 c-4 -35 -13 -115 -19 -178 -6 -63 -15 -153 -20 -200 -5 -47 -14 -134 -20 -195 -6 -60 -15 -150 -20 -200 -5 -49 -14 -139 -20 -200 -6 -60 -13 -129 -15 -152 l-5 -43 250 0 249 0 5 43 c2 23 10 94 16 157 10 110 16 166 40 398 5 56 15 147 20 202 6 55 14 144 20 198 5 53 12 127 16 164 l6 68 425 0 425 0 -6 -34 c-4 -19 -11 -83 -17 -143 -5 -59 -14 -151 -20 -203 -10 -100 -22 -216 -39 -390 -6 -58 -15 -148 -20 -200 -5 -52 -13 -132 -16 -178 l-7 -82 249 2 249 3 7 80 c7 82 20 215 38 385 6 52 15 142 21 200 5 58 14 146 19 195 5 50 14 141 20 204 6 63 13 124 16 137 l6 24 369 0 369 0 0 215 0 215 -351 0 -352 0 7 53 c3 28 11 99 17 157 5 58 14 146 19 195 5 50 14 140 20 200 6 61 15 151 20 200 5 50 14 141 20 204 6 63 13 124 16 137 l6 24 379 0 379 0 0 215 0 215 -361 0 -362 0 7 53 c4 28 11 94 16 145 15 140 28 267 39 367 13 122 30 281 41 392 5 51 12 104 16 118 l6 25 -250 0 -249 0 -7 -32 c-4 -18 -11 -80 -17 -138 -5 -58 -14 -145 -19 -195 -5 -49 -14 -135 -20 -190 -5 -55 -14 -143 -20 -195 -6 -52 -14 -141 -20 -196 -5 -56 -12 -113 -16 -128 l-6 -26 -420 0 -421 0 6 68 c4 37 11 112 16 167 12 111 25 246 41 405 6 58 15 148 20 200 5 52 13 132 16 178 l7 82 -241 0 c-132 0 -243 -4 -246 -8z m1180 -1579 c-4 -32 -11 -103 -17 -158 -5 -55 -14 -143 -19 -195 -10 -95 -21 -207 -40 -395 -5 -55 -14 -147 -19 -205 -5 -58 -13 -118 -16 -133 l-7 -27 -419 0 -419 0 0 37 c0 20 4 73 10 117 5 45 14 127 20 184 5 56 15 147 20 202 6 55 15 145 20 200 6 55 14 144 20 198 5 53 12 127 16 165 l6 67 425 0 426 0 -7 -57z"
       id="path8" />
  </g>
</svg>
